<svg width="24" height="24" viewBox="0 0 24 24" fill="currentColor" xmlns="http://www.w3.org/2000/svg">
<path d="M18.1164 6.82106C18.0907 6.83747 18.0827 6.85693 18.0774 6.88611C18.0509 7.03106 18.0865 7.27153 18.0785 7.43349C17.9521 10.0068 17.7141 12.5845 17.6341 15.1572C17.5964 16.3722 17.4638 18.8633 18.3897 19.7624C18.9591 20.3154 20.0464 20.3402 20.7401 20.032C21.5098 19.6901 21.9199 18.9915 22.1526 18.2126C22.2654 18.1831 22.7739 18.1536 22.8251 18.2405C22.8455 18.2856 22.8404 18.3366 22.8394 18.3848C22.8266 18.9867 22.5001 20.1928 22.292 20.7776C21.5165 22.957 19.5484 24.4054 17.1666 23.8989C13.4867 23.1165 13.8078 18.4081 13.9163 15.5495C14.0086 13.1193 14.1803 10.6902 14.3317 8.26506C14.3592 7.82461 14.42 7.37786 14.4364 6.93682C14.4376 6.90429 14.4316 6.82106 14.3964 6.82106H9.50596C9.46076 6.89859 9.4471 7.07185 9.4412 7.17248C9.23955 10.6036 9.083 14.1154 8.63085 17.5218C8.35913 19.5691 7.7865 23.3259 5.33178 23.8216C3.98467 24.0936 2.48779 23.2875 2.62596 21.766C2.6636 21.3517 3.19869 20.9493 3.4713 20.6344C5.46572 18.3309 5.91777 14.851 6.23804 11.9034C6.41994 10.2293 6.51624 8.54592 6.60184 6.86371L6.5812 6.83246C5.38887 6.82243 4.14976 6.72544 3.00932 7.13985C2.24467 7.41766 1.62438 7.93438 1.16309 8.59722C1.06433 8.73912 0.966549 8.96574 0.868671 9.08307C0.837224 9.12081 0.797325 9.15737 0.744161 9.1557C0.659156 9.15314 0.0709998 8.83307 0.022257 8.76074C0.00564913 8.73608 -0.00732273 8.71544 -0.0015247 8.68409C0.237668 7.83345 0.549976 7.00728 0.894123 6.19497C0.917708 6.16775 0.928715 6.16696 0.960063 6.18288C1.03318 6.21993 1.1286 6.31525 1.22412 6.36262C1.72501 6.61095 2.91223 6.56241 3.49793 6.53597C4.11773 6.50796 4.57508 6.3752 4.97711 5.88207C5.06035 5.78007 5.30003 5.33578 5.34219 5.31072C5.42562 5.26109 5.79631 5.24124 5.87826 5.32438C5.95364 5.40093 6.06606 5.70518 6.15274 5.83038C6.4674 6.28479 6.95866 6.50167 7.50191 6.53617C8.07689 6.57272 9.47392 6.59828 9.97482 6.40556C10.3332 6.26769 10.6157 5.95057 10.8146 5.63256C10.8616 5.55748 10.9318 5.35317 10.9913 5.31504C11.1284 5.22729 11.4223 5.35327 11.6249 5.22021C11.7232 5.15565 11.7426 5.0444 11.8986 5.05069C12.0298 5.0559 12.0966 5.23711 12.275 5.27495C12.4244 5.30669 12.7013 5.24969 12.8069 5.31534C12.8508 5.34266 13.0573 5.73692 13.1247 5.82989C13.4297 6.25039 13.8204 6.4833 14.3478 6.53175C14.8765 6.58029 15.7874 6.57292 16.3225 6.53617C16.9055 6.49617 17.3472 6.23585 17.6823 5.76287C17.7798 5.62519 17.9135 5.25991 18.0896 5.25972C18.1928 5.25962 18.3525 5.30188 18.4671 5.29981C18.585 5.41341 18.6391 5.57713 18.7325 5.71078C19.1155 6.25884 19.5777 6.49755 20.2481 6.53627C20.927 6.57548 22.2386 6.61469 22.8195 6.2958C22.8958 6.25393 23.0931 6.04442 23.1237 6.21C23.1397 6.29678 23.1016 6.82116 23.0067 6.82116H18.1162L18.1164 6.82106Z" fill="currentColor"/>
<path d="M18.7797 4.06341C18.7222 4.02557 18.8687 3.77646 18.8988 3.72732C19.146 3.3246 19.6252 3.08315 20.0923 3.04787C20.6736 3.00404 21.8279 2.96591 22.3697 3.11371C23.7719 3.49628 23.8565 5.6388 22.5251 6.15699C22.0357 6.34744 20.5774 6.30371 20.0184 6.24533C19.4902 6.1902 19.0135 5.80193 18.8093 5.3205L18.8447 5.25996H19.7031C19.7296 5.25996 19.9592 5.47233 20.1716 5.49375C20.4908 5.52599 21.91 5.5366 22.167 5.46064C22.8143 5.2694 22.8684 4.21219 22.2998 3.91187C22.0362 3.77262 21.5218 3.83375 21.2108 3.83031C20.8791 3.82667 20.1338 3.75936 19.8538 3.90195C19.8047 3.92701 19.664 4.06331 19.651 4.06331H18.7795L18.7797 4.06341Z" fill="currentColor"/>
<path d="M5.01891 5.26035C4.95857 5.56076 4.68744 5.87307 4.4285 6.03561C3.92485 6.35165 2.62335 6.31097 2.01337 6.27598C0.986336 6.21712 0.389827 5.48804 0.465693 4.46602C0.585781 2.8465 2.33846 2.95568 3.55034 3.02221C4.0871 3.05169 4.63035 3.1876 4.93636 3.6652C4.96536 3.71041 5.16494 4.06379 5.05803 4.06379H4.22557C4.19815 4.06379 3.98971 3.83364 3.75455 3.80642C3.35468 3.76013 2.31261 3.75984 1.91323 3.80642C1.00294 3.91265 1.08579 5.34417 1.78666 5.4622C2.14368 5.52234 3.55024 5.54278 3.86707 5.44804C3.98077 5.41404 4.13054 5.26035 4.14764 5.26035H5.01911H5.01891Z" fill="currentColor"/>
<path d="M13.0958 4.06339C12.9719 4.02546 13.2137 3.64918 13.2655 3.58275C13.6709 3.06269 14.1166 3.07812 14.7097 3.04992C15.657 3.00491 17.0655 2.80227 17.6201 3.75335C17.6431 3.79285 17.798 4.06339 17.7002 4.06339H16.8678C16.8416 4.06339 16.6399 3.83373 16.4234 3.80543C15.7805 3.83796 15.0839 3.75463 14.4474 3.80209C14.1719 3.82263 13.9331 4.0633 13.9023 4.0633C13.745 4.0633 13.1986 4.09474 13.0959 4.0633L13.0958 4.06339Z" fill="currentColor"/>
<path d="M6.13755 4.06344C6.07446 4.02285 6.23729 3.72205 6.27277 3.66544C6.55933 3.20759 7.06297 3.05164 7.57998 3.02176C8.08657 2.99248 8.79304 2.99169 9.29914 3.02196C9.91609 3.05881 10.4997 3.28886 10.7279 3.90817C10.7379 3.93529 10.7977 4.06354 10.7288 4.06354H9.92238C9.89251 4.06354 9.68968 3.82474 9.40321 3.80233C8.76062 3.75212 8.05119 3.84017 7.40142 3.80567C7.28349 3.77364 6.98691 4.06354 6.95694 4.06354H6.13755V4.06344Z" fill="currentColor"/>
<path d="M13.135 5.25999H13.9544C13.9714 5.25999 14.148 5.41556 14.2392 5.44347C14.5555 5.54027 15.894 5.52729 16.2692 5.49368C16.5214 5.47118 16.7607 5.25999 16.7898 5.25999H17.6223L17.6577 5.32043C17.4634 5.69367 17.1965 6.0218 16.7905 6.17107C16.3445 6.33499 15.2436 6.29637 14.7337 6.27583C14.097 6.25018 13.6825 6.17785 13.296 5.63244C13.2286 5.53732 13.1013 5.37193 13.1351 5.26009L13.135 5.25999Z" fill="currentColor"/>
<path d="M10.6637 5.26009C10.5586 5.77228 10.0243 6.19819 9.5057 6.24812C8.8802 6.30836 7.95015 6.30806 7.32416 6.24536C6.79124 6.192 6.35835 5.80806 6.16711 5.32053L6.20249 5.25999H7.03495C7.04704 5.25999 7.15926 5.3788 7.22403 5.40907C7.56355 5.56739 7.9587 5.46361 8.30993 5.46607C8.67452 5.46872 9.38777 5.57879 9.69949 5.37537C9.72946 5.35581 9.81004 5.25999 9.8183 5.25999H10.6637V5.26009Z" fill="currentColor"/>
<path d="M16.3423 4.96648C16.2627 4.86526 16.2217 4.31258 16.4531 4.29912L20.0421 4.29695C20.3679 4.29538 20.335 4.98201 20.066 5.02446L16.502 5.0277C16.4554 5.03094 16.3693 5.00078 16.3423 4.96648Z" fill="currentColor"/>
<path d="M3.76268 4.30324L7.39736 4.29921C7.65591 4.32692 7.61817 4.93139 7.43116 5.00627L3.7846 5.02445C3.53263 4.99193 3.55091 4.35021 3.76268 4.30324Z" fill="currentColor"/>
<path d="M12.3469 4.30326H14.3389C14.5555 4.32419 14.516 4.89446 14.4238 4.97544C14.3875 5.00738 14.3148 5.02074 14.2664 5.02615L12.3527 5.01485C12.1005 4.955 12.0986 4.35869 12.3469 4.30326Z" fill="currentColor"/>
<path d="M9.48573 4.30326H11.4517C11.727 4.36488 11.716 5.03686 11.3791 5.02605L9.48583 5.02045C9.27562 4.9721 9.27582 4.352 9.48583 4.30326H9.48573Z" fill="currentColor"/>
<path d="M9.82724 0.708812L10.9657 2.31152C11.0749 2.57175 10.5206 2.95196 10.3344 2.6709L9.24262 1.12411C9.16037 0.924715 9.66598 0.565728 9.82734 0.708812H9.82724Z" fill="currentColor"/>
<path d="M11.5299 2.16032V0.194395C11.5915 -0.0809623 12.2635 -0.0699558 12.2527 0.266919L12.2471 2.16022C12.1987 2.37042 11.5786 2.37023 11.5299 2.16022V2.16032Z" fill="currentColor"/>
<path d="M13.9042 0.708812L12.7657 2.31152C12.6565 2.57175 13.2108 2.95196 13.397 2.6709L14.4888 1.12411C14.571 0.924715 14.0654 0.565728 13.9041 0.708812H13.9042Z" fill="currentColor"/>
</svg>
